<svg xmlns="http://www.w3.org/2000/svg" xmlns:xlink="http://www.w3.org/1999/xlink" width="30" zoomAndPan="magnify" viewBox="0 0 375 374.999991" height="30" preserveAspectRatio="xMidYMid meet" version="1.0"><defs><clipPath id="1de2ef9d03"><path d="M 40 16.347656 L 340 16.347656 L 340 358.347656 L 40 358.347656 Z M 40 16.347656 " clip-rule="nonzero"/></clipPath></defs><g clip-path="url(#1de2ef9d03)"><path fill="#ffffff" d="M 119.46875 183.160156 C 124.933594 178.796875 137.707031 173.664062 137.707031 173.664062 L 151.746094 183.707031 L 175.515625 183.707031 L 139.367188 162.84375 C 139.367188 162.84375 102.757812 169.074219 95.253906 168.988281 C 93.015625 168.964844 92.199219 163.039062 94.324219 162.324219 C 100.101562 160.382812 129.894531 157.363281 129.894531 157.363281 L 111.789062 146.914062 C 111.789062 146.914062 74.722656 153.210938 67.117188 153.136719 C 64.878906 153.109375 64.0625 147.175781 66.191406 146.46875 C 72.050781 144.515625 102.300781 141.4375 102.300781 141.4375 L 87.152344 132.691406 L 63.867188 135.773438 C 63.867188 135.773438 37.511719 111.507812 40.441406 106.660156 C 43.363281 101.8125 81.453125 106.660156 81.453125 106.660156 L 88.722656 126.445312 L 106.125 136.488281 C 106.125 136.488281 93.335938 107.933594 92.023438 101.714844 C 91.566406 99.523438 97.132812 97.261719 98.269531 99.191406 C 102.191406 105.894531 115.609375 141.96875 115.609375 141.96875 L 134.46875 152.863281 C 134.46875 152.863281 121.507812 123.875 120.160156 117.566406 C 119.691406 115.378906 125.265625 113.101562 126.40625 115.042969 C 130.363281 121.835938 143.953125 158.328125 143.953125 158.328125 L 180.832031 179.625 L 171.679688 163.78125 L 153.230469 155.980469 C 153.230469 155.980469 149.628906 134.757812 153.117188 131.828125 C 148.058594 122.738281 141.863281 112.175781 138.214844 107.957031 C 133.726562 102.75 122.570312 104.507812 119.714844 98.84375 C 116.796875 93.019531 117.785156 74.753906 120.65625 73.046875 C 123.523438 71.351562 141.703125 79.167969 145.550781 84.4375 C 149.050781 89.234375 141.457031 98.3125 143.742188 104.679688 C 145.859375 110.566406 153.636719 123.269531 159.609375 132.617188 C 166.375 135.238281 175.613281 141.164062 175.613281 141.164062 L 175.589844 156.351562 L 185.171875 172.960938 L 185.171875 132.246094 C 185.171875 132.246094 161.476562 103.65625 157.792969 97.113281 C 156.691406 95.160156 161.417969 91.484375 163.097656 92.980469 C 167.660156 97.011719 185.171875 121.300781 185.171875 121.300781 L 185.171875 100.390625 C 185.171875 100.390625 161.195312 71.4375 157.457031 64.824219 C 156.359375 62.867188 161.082031 59.195312 162.765625 60.679688 C 167.378906 64.785156 185.171875 89.445312 185.171875 89.445312 L 185.171875 70.203125 L 171.679688 53.332031 C 171.679688 53.332031 183.925781 16.34375 189.589844 16.34375 C 195.253906 16.34375 205.691406 53.332031 205.691406 53.332031 L 191.367188 71.230469 L 191.367188 90.285156 C 191.367188 90.285156 209.710938 64.933594 214.433594 60.679688 C 216.101562 59.183594 220.851562 62.867188 219.738281 64.824219 C 215.90625 71.574219 191.367188 101.230469 191.367188 101.230469 L 191.367188 123.007812 C 191.367188 123.007812 209.992188 97.296875 214.78125 92.980469 C 216.4375 91.472656 221.199219 95.160156 220.085938 97.113281 C 216.175781 103.9375 191.367188 133.953125 191.367188 133.953125 L 191.367188 177.152344 L 202.203125 158.378906 L 202.175781 141.164062 C 202.175781 141.164062 214.273438 132.199219 221.160156 129.699219 C 226.925781 120.585938 233.886719 109.082031 235.867188 103.582031 C 238.152344 97.199219 230.558594 88.132812 234.058594 83.324219 C 237.917969 78.054688 256.085938 70.238281 258.953125 71.945312 C 261.824219 73.640625 262.824219 91.917969 259.894531 97.730469 C 257.050781 103.394531 245.882812 101.652344 241.394531 106.84375 C 237.683594 111.136719 231.339844 121.996094 226.230469 131.183594 C 227.914062 137.441406 224.5625 155.980469 224.5625 155.980469 L 207.65625 163.128906 L 198.183594 179.511719 L 234.886719 158.328125 C 234.886719 158.328125 248.46875 121.835938 252.4375 115.042969 C 253.5625 113.101562 259.140625 115.378906 258.667969 117.566406 C 257.320312 123.875 244.359375 152.863281 244.359375 152.863281 L 263.222656 141.96875 C 263.222656 141.96875 276.640625 105.894531 280.570312 99.191406 C 281.710938 97.25 287.273438 99.523438 286.804688 101.714844 C 285.492188 107.933594 272.707031 136.488281 272.707031 136.488281 L 287.582031 127.90625 L 296.585938 105.507812 C 296.585938 105.507812 335.171875 96.742188 337.953125 101.675781 C 340.738281 106.609375 313.292969 135.117188 313.292969 135.117188 L 290.835938 131.46875 C 283.269531 135.402344 276.207031 139.59375 276.527344 141.4375 C 277.21875 145.355469 306.777344 144.515625 312.640625 146.46875 C 314.765625 147.175781 313.960938 153.109375 311.710938 153.136719 C 304.117188 153.210938 267.054688 146.914062 267.054688 146.914062 L 248.949219 157.363281 C 248.949219 157.363281 278.742188 160.382812 284.503906 162.324219 C 286.632812 163.027344 285.828125 168.953125 283.578125 168.988281 C 276.070312 169.074219 239.464844 162.84375 239.464844 162.84375 L 203.316406 183.707031 L 224.054688 183.707031 L 238.089844 173.664062 C 238.089844 173.664062 253.09375 179.699219 257.53125 184.238281 C 268.390625 184.140625 282.117188 183.742188 287.894531 182.382812 C 294.496094 180.847656 297.984375 169.546875 303.921875 169.878906 C 310.4375 170.238281 326.875 181.246094 326.996094 184.582031 C 327.132812 187.921875 312.332031 198.683594 305.863281 199.386719 C 299.554688 200.078125 294.96875 189.753906 288.152344 188.8125 C 282.054688 187.960938 267.773438 188.714844 256.839844 189.480469 C 251.894531 194.253906 239.019531 200.488281 239.019531 200.488281 L 223.261719 190.792969 L 201.484375 190.792969 L 237.484375 211.582031 C 237.484375 211.582031 275.882812 205.101562 283.75 205.136719 C 285.988281 205.148438 286.816406 211.109375 284.675781 211.804688 C 278.542969 213.78125 246.957031 217.058594 246.957031 217.058594 L 265.832031 227.941406 C 265.832031 227.941406 303.773438 221.523438 311.550781 221.574219 C 313.789062 221.597656 314.605469 227.546875 312.476562 228.238281 C 306.429688 230.21875 275.304688 233.421875 275.304688 233.421875 L 290.144531 241.980469 L 313.292969 238.910156 C 313.292969 238.910156 342.714844 270.78125 339.785156 275.628906 C 336.855469 280.488281 295.722656 268.023438 295.722656 268.023438 L 288.398438 248.125 L 272.941406 239.207031 C 272.941406 239.207031 285.394531 266.933594 286.632812 272.996094 C 287.089844 275.183594 281.535156 277.449219 280.398438 275.519531 C 276.539062 268.976562 263.457031 233.730469 263.457031 233.730469 L 245.351562 223.28125 C 245.351562 223.28125 257.632812 250.585938 258.84375 256.546875 C 259.289062 258.75 253.746094 261.011719 252.609375 259.082031 C 248.777344 252.625 235.867188 217.800781 235.867188 217.800781 L 198.664062 196.320312 L 208.621094 213.570312 L 224.773438 220.398438 C 224.773438 220.398438 227.839844 238.503906 225.5625 243.625 C 230.460938 253.183594 236.769531 264.871094 240.476562 269.347656 C 244.808594 274.554688 256.480469 272.625 258.832031 278.078125 C 261.414062 284.074219 258.917969 303.691406 255.984375 305.308594 C 253.066406 306.917969 236.816406 298.484375 233.304688 293.003906 C 229.867188 287.675781 237.050781 278.957031 234.851562 272.4375 C 232.859375 266.539062 225.675781 253.886719 220.058594 244.425781 C 213.257812 242.25 202.3125 235.25 202.3125 235.25 L 202.351562 216.886719 L 192.359375 199.585938 L 192.359375 242.175781 C 192.359375 242.175781 216.066406 270.757812 219.738281 277.3125 C 220.839844 279.265625 216.117188 282.925781 214.433594 281.441406 C 209.871094 277.410156 192.359375 253.121094 192.359375 253.121094 L 192.359375 274.035156 C 192.359375 274.035156 216.351562 302.984375 220.085938 309.601562 C 221.1875 311.554688 216.449219 315.226562 214.78125 313.730469 C 210.15625 309.625 192.359375 284.980469 192.359375 284.980469 L 192.359375 300.808594 L 207.234375 319.410156 C 207.234375 319.410156 196.824219 358.648438 191.144531 358.648438 C 185.480469 358.648438 173.238281 319.410156 173.238281 319.410156 L 186.175781 303.246094 L 186.175781 284.136719 C 186.175781 284.136719 167.835938 309.488281 163.097656 313.730469 C 161.429688 315.226562 156.679688 311.542969 157.792969 309.601562 C 161.640625 302.835938 186.175781 273.191406 186.175781 273.191406 L 186.175781 251.402344 C 186.175781 251.402344 167.550781 277.125 162.765625 281.441406 C 161.09375 282.949219 156.347656 279.253906 157.457031 277.3125 C 161.355469 270.472656 186.175781 240.457031 186.175781 240.457031 L 186.175781 200.339844 L 175.652344 218.554688 L 175.675781 235.25 C 175.675781 235.25 165.289062 241.90625 158.449219 244.253906 C 153.03125 253.46875 146.613281 264.917969 144.746094 270.449219 C 142.542969 276.964844 149.730469 285.683594 146.292969 291.015625 C 142.765625 296.492188 126.527344 304.914062 123.597656 303.304688 C 120.679688 301.699219 118.179688 282.074219 120.765625 276.085938 C 123.117188 270.621094 134.789062 272.5625 139.117188 267.34375 C 142.507812 263.261719 148.058594 253.160156 152.722656 244.15625 C 149.914062 239.9375 153.230469 220.398438 153.230469 220.398438 L 170.652344 213.027344 L 180.363281 196.207031 L 142.964844 217.800781 C 142.964844 217.800781 130.054688 252.625 126.230469 259.082031 C 125.082031 261.011719 119.554688 258.75 120 256.558594 C 121.199219 250.585938 133.492188 223.28125 133.492188 223.28125 L 115.375 233.730469 C 115.375 233.730469 102.300781 268.976562 98.429688 275.519531 C 97.292969 277.460938 91.753906 275.195312 92.199219 272.996094 C 93.449219 266.933594 105.902344 239.207031 105.902344 239.207031 L 89.898438 248.445312 L 82.34375 267.230469 C 82.34375 267.230469 46.710938 274.703125 43.929688 269.765625 C 41.148438 264.832031 65.632812 237.625 65.632812 237.625 L 89.515625 241.507812 L 103.527344 233.421875 C 103.527344 233.421875 72.398438 230.21875 66.363281 228.238281 C 64.222656 227.546875 65.054688 221.597656 67.292969 221.574219 C 75.070312 221.523438 113.011719 227.941406 113.011719 227.941406 L 131.871094 217.058594 C 131.871094 217.058594 100.285156 213.792969 94.152344 211.804688 C 92.023438 211.109375 92.839844 205.148438 95.078125 205.136719 C 102.945312 205.101562 141.355469 211.582031 141.355469 211.582031 L 177.355469 190.792969 L 152.535156 190.792969 L 136.78125 200.488281 C 136.78125 200.488281 121.039062 192.859375 117.675781 188.035156 C 108.140625 187.453125 97.875 187.105469 92.953125 187.785156 C 86.152344 188.726562 81.550781 199.054688 75.253906 198.359375 C 68.777344 197.65625 53.972656 186.898438 54.109375 183.558594 C 54.246094 180.230469 70.679688 169.222656 77.199219 168.851562 C 83.132812 168.519531 86.621094 179.824219 93.210938 181.367188 C 98.28125 182.542969 109.476562 183 119.46875 183.160156 Z M 119.46875 183.160156 " fill-opacity="1" fill-rule="evenodd"/></g></svg>
